#!OML:ASF H:\Dans Jumps\Project 1\Capture day 1\Session 1\subject.ASF
:FULLY-SPECIFIED
:DEGREES
268
root 0.572356 15.3195 -16.5676 22.7501 -1.3949 -2.01816
lowerback 23.8097 0.157241 -0.327148
upperback 12.2329 0.15665 1.60164
thorax 0.178821 -0.00947815 1.8699
lowerneck -15.7892 0.99017 -0.912923
upperneck 13.4669 1.66186 -0.693751
head 6.69896 0.688307 0.0947237
rclavicle -5.41688e-015 1.95679e-015
rhumerus -23.4225 -4.67737 -82.3428
rradius 28.296
rwrist 21.9556
rhand -17.9391 -24.5553
rfingers 7.12502
rthumb 8.32914 -54.371
lclavicle -5.41688e-015 1.95679e-015
lhumerus -23.6896 -8.95828 90.8595
lradius 21.1292
lwrist 17.362
lhand -30.348 -7.50168
lfingers 7.12502
lthumb -3.65357 22.4468
rfemur -67.3684 -4.82957 22.5955
rtibia 67.2621
rfoot -20.3112 -8.09141
rtoes 3.49654
lfemur -66.8225 8.21992 -22.4686
ltibia 67.1056
lfoot -19.4461 11.4902
ltoes 0.125621
269
root 0.570532 15.3212 -16.5632 22.7219 -1.37773 -2.01601
lowerback 23.8108 0.151903 -0.321629
upperback 12.2391 0.151132 1.6033
thorax 0.185368 -0.012022 1.86982
lowerneck -15.8047 0.990591 -0.906411
upperneck 13.4643 1.66217 -0.699947
head 6.70085 0.688227 0.0917762
rclavicle -2.48481e-016 -1.06474e-014
rhumerus -23.5877 -4.83645 -82.2717
rradius 28.1986
rwrist 22.1435
rhand -17.823 -24.5665
rfingers 7.12502
rthumb 8.44114 -54.3778
lclavicle -2.48481e-016 -1.06474e-014
lhumerus -23.8536 -8.83722 90.7612
lradius 20.9815
lwrist 17.1632
lhand -30.3213 -7.35638
lfingers 7.12502
lthumb -3.62773 22.5925
rfemur -67.3109 -4.83653 22.5987
rtibia 67.2541
rfoot -20.3286 -8.10893
rtoes 3.49279
lfemur -66.7685 8.22722 -22.4626
ltibia 67.0917
lfoot -19.4572 11.4863
ltoes 0.0724142
270
root 0.568657 15.3224 -16.5589 22.6976 -1.35907 -2.01389
lowerback 23.8085 0.14755 -0.318743
upperback 12.2443 0.146465 1.60859
thorax 0.192508 -0.0143882 1.87493
lowerneck -15.8154 0.994505 -0.8943
upperneck 13.4553 1.6678 -0.718266
head 6.70003 0.689991 0.0845031
rclavicle 1.09332e-014 2.54693e-016
rhumerus -23.753 -5.00314 -82.1889
rradius 28.1038
rwrist 22.3281
rhand -17.7157 -24.5877
rfingers 7.12502
rthumb 8.54468 -54.3948
lclavicle 1.09332e-014 2.54693e-016
lhumerus -24.0184 -8.69603 90.6586
lradius 20.8412
lwrist 16.9813
lhand -30.302 -7.25933
lfingers 7.12502
lthumb -3.6091 22.6899
rfemur -67.2608 -4.84435 22.6029
rtibia 67.2507
rfoot -20.3474 -8.12798
rtoes 3.48864
lfemur -66.7226 8.23363 -22.4569
ltibia 67.0822
lfoot -19.4711 11.4817
ltoes 0.0309288
271
root 0.566752 15.3232 -16.5546 22.6779 -1.33739 -2.01372
lowerback 23.8043 0.143304 -0.316038
upperback 12.2471 0.142061 1.61782
thorax 0.197754 -0.0167428 1.88431
lowerneck -15.8133 1.0022 -0.885195
upperneck 13.4339 1.67886 -0.736421
head 6.69302 0.694375 0.0782122
rclavicle -3.10601e-016 -1.53685e-014
rhumerus -23.9215 -5.17013 -82.0964
rradius 28.012
rwrist 22.4955
rhand -17.635 -24.5981
rfingers 7.12502
rthumb 8.6226 -54.402
lclavicle -3.10601e-016 -1.53685e-014
lhumerus -24.1847 -8.53136 90.5504
lradius 20.7046
lwrist 16.8087
lhand -30.3109 -7.22424
lfingers 7.12502
lthumb -3.61772 22.7248
rfemur -67.2185 -4.8537 22.6112
rtibia 67.2521
rfoot -20.3676 -8.14998
rtoes 3.48732
lfemur -66.6853 8.23858 -22.4491
ltibia 67.0775
lfoot -19.4887 11.477
ltoes -0.00502467
